<?xml version="1.0" encoding="utf-8"?>
<!-- Generator: Adobe Illustrator 19.1.0, SVG Export Plug-In . SVG Version: 6.00 Build 0)  -->
<!DOCTYPE svg PUBLIC "-//W3C//DTD SVG 1.1//EN" "http://www.w3.org/Graphics/SVG/1.1/DTD/svg11.dtd">
<svg version="1.1" id="Layer_1" xmlns="http://www.w3.org/2000/svg" xmlns:xlink="http://www.w3.org/1999/xlink" x="0px" y="0px"
	 viewBox="0 0 55.47 50" enable-background="new 0 0 55.47 50" xml:space="preserve">
<g>
	<path d="M35.585,23.169c4.508-0.294,9.02-0.554,13.524-0.903c1.447-0.112,1.902,0.351,1.888,1.824
		c-0.068,7.117,0.028,14.235-0.071,21.352c-0.024,1.701,0.494,2.311,2.126,2.078c0.363-0.052,0.743,0.026,1.11-0.011
		c0.963-0.097,1.275,0.335,1.307,1.276c0.036,1.044-0.446,1.22-1.336,1.215c-4.745-0.028-9.49-0.018-14.235-0.013
		c-0.811,0.001-1.401-0.082-1.416-1.174c-0.016-1.187,0.602-1.27,1.526-1.315c3.349-0.161,3.345-0.186,3.344-3.632
		c-0.002-5.709-0.065-11.419,0.04-17.126c0.03-1.65-0.475-2.18-2.092-2.264c-1.895-0.099-3.772-0.54-5.656-0.832
		C35.624,23.486,35.604,23.327,35.585,23.169z"/>
	<path d="M46.828,19.569c-2.11,0.016-3.923-1.867-3.89-4.038c0.033-2.096,1.762-3.854,3.81-3.871
		c2.125-0.018,3.871,1.818,3.844,4.042C50.565,17.85,48.908,19.553,46.828,19.569z"/>
	<path d="M12.464,24.161c-1.612-0.221-2.557-1.156-2.518-2.774c0.039-1.63,1.059-2.634,2.681-2.576
		c1.613,0.058,2.597,1.147,2.547,2.745C15.123,23.136,14.162,24.092,12.464,24.161z"/>
	<path d="M18.457,33.145c-0.128,1.641-0.968,2.659-2.597,2.835c-1.476,0.159-2.905-1.266-2.825-2.794
		c0.086-1.635,0.999-2.692,2.655-2.682C17.314,30.513,18.215,31.552,18.457,33.145z"/>
	<path d="M12.719,30.452c-1.698-0.09-2.67-1.006-2.735-2.608c-0.066-1.637,0.954-2.694,2.536-2.739
		c1.591-0.046,2.64,0.987,2.691,2.602C15.261,29.32,14.334,30.275,12.719,30.452z"/>
	<path d="M32.735,35.764c-1.736-0.163-2.694-1.086-2.704-2.699c-0.01-1.627,0.985-2.666,2.604-2.66
		c1.615,0.007,2.615,1.068,2.623,2.671C35.266,34.683,34.292,35.607,32.735,35.764z"/>
	<path d="M29.846,15.628c0.143-1.568,1.079-2.461,2.755-2.369c1.583,0.087,2.4,1.089,2.408,2.636
		c0.009,1.707-1.017,2.677-2.632,2.634C30.758,18.485,29.863,17.433,29.846,15.628z"/>
	<path d="M29.676,12.863c-0.149,1.698-1.121,2.636-2.75,2.544c-1.503-0.085-2.436-1.053-2.417-2.638
		c0.02-1.671,0.911-2.663,2.613-2.63C28.826,10.174,29.598,11.234,29.676,12.863z"/>
	<path d="M23.545,12.841c-0.167,1.655-1.091,2.712-2.716,2.632c-1.584-0.078-2.567-1.104-2.481-2.816
		c0.08-1.577,0.969-2.478,2.543-2.483C22.604,10.169,23.375,11.242,23.545,12.841z"/>
	<path d="M21.164,39.015c-1.57-0.015-2.813-1.353-2.786-2.847c0.032-1.776,1.192-2.437,2.679-2.456
		c1.634-0.021,2.629,1.017,2.634,2.63C23.696,37.956,22.71,38.873,21.164,39.015z"/>
	<path d="M18.254,16.033c-0.253,1.64-1.1,2.739-2.779,2.627c-1.625-0.109-2.547-1.168-2.45-2.851c0.09-1.571,1.004-2.46,2.588-2.446
		C17.346,13.376,18.055,14.5,18.254,16.033z"/>
	<path d="M27.093,38.955c-1.569-0.23-2.514-1.143-2.455-2.814c0.056-1.579,1.066-2.505,2.574-2.509
		c1.644-0.004,2.671,1.077,2.648,2.693C29.837,37.921,28.877,38.911,27.093,38.955z"/>
	<path d="M19.752,39.769c1.021,0.278,1.74,0.857,1.665,1.855c-0.071,0.949-0.691,1.687-1.759,1.603
		c-1.024-0.081-1.626-0.833-1.591-1.794C18.104,40.449,18.859,39.928,19.752,39.769z"/>
	<path d="M11.901,13.918c-1.161-0.078-1.639-0.729-1.649-1.755c-0.011-1.102,0.624-1.655,1.675-1.605
		c1.029,0.049,1.658,0.664,1.625,1.722C13.518,13.33,12.874,13.856,11.901,13.918z"/>
	<path d="M28.384,9.314c-0.931-0.289-1.605-0.734-1.554-1.86c0.046-1.008,0.643-1.564,1.511-1.583
		c0.996-0.022,1.639,0.619,1.677,1.683C30.058,8.671,29.317,9.087,28.384,9.314z"/>
	<path d="M21.127,7.641c-0.056,1.074-0.67,1.717-1.678,1.664c-0.857-0.045-1.469-0.621-1.518-1.611
		c-0.056-1.117,0.615-1.762,1.557-1.776C20.429,5.905,21.117,6.552,21.127,7.641z"/>
	<path d="M9.08,20.345c-0.061,0.851-0.666,1.517-1.675,1.448c-0.981-0.067-1.556-0.744-1.513-1.832
		c0.04-1.023,0.729-1.558,1.552-1.548C8.383,18.426,9.097,19.027,9.08,20.345z"/>
	<path d="M7.273,27.597c1.247-0.023,1.816,0.508,1.83,1.585c0.012,0.928-0.371,1.561-1.384,1.619
		c-1.046,0.06-1.707-0.423-1.798-1.479C5.832,28.269,6.366,27.67,7.273,27.597z"/>
	<path d="M13.594,37.043c-0.002,1.238-1.026,1.63-1.857,1.672c-0.814,0.041-1.34-0.795-1.356-1.686
		c-0.019-1.063,0.68-1.697,1.616-1.694C12.933,35.337,13.596,35.971,13.594,37.043z"/>
	<path d="M9.363,35.013c-0.91-0.068-1.56-0.51-1.65-1.459c-0.103-1.089,0.576-1.734,1.569-1.746c0.881-0.011,1.521,0.585,1.554,1.56
		C10.87,34.347,10.307,34.853,9.363,35.013z"/>
	<path d="M34.424,39.685c-0.113,0.937-0.607,1.574-1.52,1.594c-1,0.022-1.631-0.549-1.643-1.62
		c-0.011-0.971,0.557-1.539,1.456-1.569C33.729,38.056,34.286,38.709,34.424,39.685z"/>
	<path d="M9.23,17.456c-1.026-0.093-1.559-0.615-1.588-1.57c-0.028-0.955,0.455-1.577,1.428-1.608
		c1.073-0.034,1.681,0.638,1.664,1.649C10.72,16.834,10.126,17.39,9.23,17.456z"/>
	<path d="M24.008,8.569c-0.957-0.071-1.558-0.567-1.588-1.513c-0.034-1.052,0.576-1.706,1.626-1.659
		c0.924,0.042,1.481,0.693,1.477,1.621C25.52,7.962,24.955,8.491,24.008,8.569z"/>
	<path d="M37.98,36.779c-0.094,0.88-0.47,1.561-1.453,1.623c-0.938,0.059-1.568-0.402-1.669-1.373
		c-0.111-1.069,0.432-1.732,1.486-1.776C37.298,35.214,37.77,35.882,37.98,36.779z"/>
	<path d="M30.169,41.575c-0.099,0.95-0.657,1.518-1.575,1.484c-0.911-0.034-1.51-0.655-1.507-1.577
		c0.003-1.037,0.643-1.674,1.685-1.578C29.68,39.987,30.161,40.635,30.169,41.575z"/>
	<path d="M8.544,24.638c-0.127,0.931-0.606,1.606-1.542,1.614c-1.033,0.008-1.628-0.629-1.602-1.704
		c0.025-1,0.613-1.477,1.572-1.457C7.962,23.111,8.364,23.785,8.544,24.638z"/>
	<path d="M15.117,38.204c1.451,0.069,2.029,0.606,2.003,1.67c-0.024,0.956-0.618,1.535-1.518,1.515
		c-1.005-0.022-1.64-0.706-1.576-1.717C14.077,38.857,14.374,38.039,15.117,38.204z"/>
	<path d="M25.739,42.163c-0.136,0.968-0.637,1.548-1.601,1.515c-0.971-0.033-1.5-0.704-1.493-1.589
		c0.008-1.006,0.587-1.664,1.697-1.562C25.333,40.618,25.672,41.31,25.739,42.163z"/>
	<path d="M15.347,11.038c-0.902-0.228-1.489-0.698-1.476-1.686c0.013-1.001,0.606-1.555,1.525-1.538
		c1.029,0.019,1.669,0.697,1.588,1.74C16.912,10.473,16.264,10.966,15.347,11.038z"/>
	<path d="M32.534,7.631c0.849,0.172,1.498,0.577,1.551,1.562c0.051,0.967-0.404,1.583-1.383,1.645
		c-1.081,0.069-1.706-0.587-1.726-1.591C30.957,8.338,31.592,7.794,32.534,7.631z"/>
	<path d="M36.192,10.428c0.856,0.165,1.456,0.623,1.469,1.608c0.013,0.978-0.529,1.593-1.461,1.607
		c-1.032,0.015-1.689-0.651-1.657-1.689C34.571,11.025,35.207,10.513,36.192,10.428z"/>
	<path d="M19.683,3.916c-0.181,0.599-0.457,1.089-1.196,1.037c-0.721-0.051-1.032-0.468-1.002-1.167
		c0.03-0.701,0.405-1.126,1.098-1.068C19.244,2.774,19.559,3.285,19.683,3.916z"/>
	<path d="M9.474,40.984c-0.682-0.061-1.147-0.433-1.247-1.06c-0.107-0.676,0.286-1.108,0.986-1.167
		c0.686-0.057,1.133,0.23,1.201,0.963C10.479,40.43,10.093,40.797,9.474,40.984z"/>
	<path d="M29.423,2.667c0.665,0.1,1.055,0.499,1.029,1.183c-0.026,0.685-0.436,1.115-1.136,1.065
		c-0.675-0.048-1.094-0.519-1.072-1.176C28.267,3.081,28.703,2.689,29.423,2.667z"/>
	<path d="M35.8,43.165c-0.15,0.618-0.494,1.046-1.205,0.945c-0.579-0.082-0.936-0.53-0.931-1.056
		c0.006-0.63,0.404-1.147,1.097-1.098C35.41,42.002,35.771,42.464,35.8,43.165z"/>
	<path d="M10.352,9.448c-0.203,0.703-0.566,1.213-1.223,1.182c-0.639-0.031-1.015-0.472-1.021-1.181
		C8.101,8.674,8.519,8.415,9.21,8.419C9.951,8.424,10.15,8.965,10.352,9.448z"/>
	<path d="M5.029,30.224c-0.121,0.687-0.477,1.101-1.182,1.06c-0.676-0.039-1.103-0.382-1.069-1.121
		c0.032-0.702,0.464-1.137,1.11-1.095C4.509,29.108,4.906,29.594,5.029,30.224z"/>
	<path d="M19.368,46.361c-1.219,0.095-1.62-0.358-1.691-0.974c-0.073-0.631,0.295-1.142,0.974-1.229
		c0.723-0.093,1.076,0.357,1.142,1.024C19.859,45.843,19.635,46.333,19.368,46.361z"/>
	<path d="M3.791,20.182c-0.695-0.044-1.041-0.383-1.033-1.108c0.008-0.726,0.434-1.13,1.054-1.098
		c0.611,0.032,1.082,0.534,1.101,1.166C4.932,19.811,4.468,20.161,3.791,20.182z"/>
	<path d="M30.664,45.315c-0.127,0.583-0.436,1.028-1.028,0.983c-0.653-0.05-1.062-0.468-1.003-1.185
		c0.049-0.597,0.407-0.969,0.99-0.951C30.325,44.185,30.607,44.688,30.664,45.315z"/>
	<path d="M4.183,24.769c-0.117,0.636-0.48,1.08-1.165,0.966c-0.629-0.104-1.037-0.565-0.93-1.241
		c0.085-0.534,0.427-0.932,1.042-0.886C3.817,23.659,4.142,24.082,4.183,24.769z"/>
	<path d="M5.97,36.464c-0.608-0.15-1.045-0.472-0.978-1.194c0.054-0.585,0.368-0.964,0.98-0.949c0.728,0.017,1.031,0.504,1.01,1.162
		C6.962,36.073,6.573,36.388,5.97,36.464z"/>
	<path d="M35.427,5.84c0.063,0.614-0.263,1.01-0.812,1.08c-0.653,0.083-1.103-0.255-1.154-0.967
		c-0.042-0.582,0.201-1.004,0.803-1.07C34.942,4.808,35.354,5.143,35.427,5.84z"/>
	<path d="M25.197,46.07c-0.024,0.621-0.39,0.927-0.965,0.926c-0.7-0.002-1.026-0.425-1.01-1.111
		c0.015-0.617,0.367-0.917,0.958-0.919C24.903,44.964,25.191,45.397,25.197,46.07z"/>
	<path d="M40.161,39.596c-0.114,0.578-0.358,1.005-0.985,1.016c-0.699,0.012-1.115-0.368-1.143-1.053
		c-0.025-0.612,0.405-0.971,0.96-1.005C39.683,38.512,40.027,38.981,40.161,39.596z"/>
	<path d="M39.816,9.491c-0.064,0.489-0.404,0.81-0.994,0.808c-0.729-0.002-1.029-0.468-1.014-1.124
		c0.014-0.601,0.43-0.957,0.989-0.927C39.439,8.282,39.856,8.669,39.816,9.491z"/>
	<path d="M5.981,15c-0.821-0.145-1.154-0.549-1.093-1.223c0.054-0.59,0.41-0.909,1.01-0.861c0.703,0.056,0.981,0.487,0.949,1.169
		C6.816,14.744,6.308,14.834,5.981,15z"/>
	<path d="M14.774,43.327c-0.121,0.531-0.438,0.903-1.045,0.872c-0.684-0.035-1.099-0.423-1.067-1.124
		c0.027-0.613,0.499-0.957,1.033-0.941C14.344,42.153,14.751,42.588,14.774,43.327z"/>
	<path d="M24.995,3.125c-0.11,0.571-0.388,0.965-0.985,0.974c-0.685,0.01-1.091-0.378-1.099-1.049
		c-0.007-0.588,0.403-0.934,0.961-0.957C24.554,2.063,24.889,2.504,24.995,3.125z"/>
	<path d="M14.443,6.329c-0.045,0.369-0.357,0.765-0.967,0.74c-0.589-0.024-0.964-0.407-0.968-1.005
		c-0.005-0.699,0.388-1.16,1.098-1.071C14.158,5.064,14.496,5.489,14.443,6.329z"/>
	<path d="M7.737,7.3C7.652,7.777,7.398,8.085,6.881,8.048C6.387,8.012,6.077,7.654,6.078,7.226C6.08,6.675,6.458,6.238,7.04,6.349
		C7.435,6.424,7.773,6.783,7.737,7.3z"/>
	<path d="M3.216,37.819c-0.446-0.185-0.832-0.464-0.712-0.957c0.101-0.417,0.427-0.82,0.949-0.632
		c0.325,0.117,0.648,0.399,0.606,0.814C4.011,37.529,3.715,37.812,3.216,37.819z"/>
	<path d="M11.345,45.882c0.177-0.457,0.482-0.816,0.963-0.675c0.414,0.122,0.755,0.502,0.6,0.997
		c-0.105,0.334-0.369,0.66-0.806,0.57C11.635,46.677,11.37,46.364,11.345,45.882z"/>
	<path d="M1.501,18.317c-0.004,0.514-0.267,0.844-0.792,0.837c-0.42-0.005-0.663-0.333-0.701-0.725
		c-0.047-0.477,0.117-0.935,0.66-0.967C1.175,17.432,1.451,17.793,1.501,18.317z"/>
	<path d="M18.039,47.655c0.511,0.068,0.811,0.347,0.77,0.875c-0.033,0.438-0.366,0.624-0.758,0.633
		c-0.5,0.011-0.914-0.268-0.915-0.754C17.135,47.931,17.504,47.629,18.039,47.655z"/>
	<path d="M18.415,0.673c0.051,0.425-0.12,0.733-0.541,0.816c-0.522,0.103-0.842-0.163-0.911-0.678
		c-0.054-0.4,0.077-0.746,0.536-0.798C17.979-0.041,18.399,0.052,18.415,0.673z"/>
	<path d="M7.927,42.146c-0.121,0.349-0.257,0.685-0.726,0.681c-0.52-0.004-0.841-0.22-0.839-0.773
		c0.001-0.438,0.249-0.674,0.675-0.692C7.569,41.338,7.812,41.676,7.927,42.146z"/>
	<path d="M1.526,31.378c0.005,0.231-0.323,0.491-0.679,0.48c-0.465-0.014-0.77-0.326-0.748-0.872
		c0.019-0.458,0.253-0.655,0.677-0.67C1.35,30.296,1.538,30.636,1.526,31.378z"/>
</g>
</svg>
