<?xml version="1.0" encoding="UTF-8" standalone="no"?>
<svg
   xmlns:dc="http://purl.org/dc/elements/1.1/"
   xmlns:cc="http://creativecommons.org/ns#"
   xmlns:rdf="http://www.w3.org/1999/02/22-rdf-syntax-ns#"
   xmlns:svg="http://www.w3.org/2000/svg"
   xmlns="http://www.w3.org/2000/svg"
   viewBox="0 0 389.85333 127.04"
   height="127.04"
   width="389.85333"
   xml:space="preserve"
   version="1.1"
   id="svg2"><metadata
     id="metadata8"><rdf:RDF><cc:Work
         rdf:about=""><dc:format>image/svg+xml</dc:format><dc:type
           rdf:resource="http://purl.org/dc/dcmitype/StillImage" /></cc:Work></rdf:RDF></metadata><defs
     id="defs6"><clipPath
       id="clipPath18"
       clipPathUnits="userSpaceOnUse"><path
         id="path20"
         d="M 0,952.766 0,0 l 2923.92,0 0,952.766 -2923.92,0 z" /></clipPath></defs><g
     transform="matrix(1.3333333,0,0,-1.3333333,0,127.04)"
     id="g10"><g
       transform="scale(0.1)"
       id="g12"><g
         id="g14"><g
           clip-path="url(#clipPath18)"
           id="g16"><path
             id="path22"
             style="fill:#ffffff;fill-opacity:1;fill-rule:nonzero;stroke:none"
             d="m 789.57,928.77 0,-508.778 c 0,-116.398 -4.804,-231.594 -94.8,-319.191 C 619.176,26.4062 500.383,0 394.785,0 289.188,0 170.391,26.4062 94.793,100.801 4.80078,188.398 0,303.594 0,419.992 l 0,508.778 235.191,0 0,-476.383 c 0,-117.602 8.399,-245.989 159.594,-245.989 151.192,0 159.59,128.387 159.59,245.989 l 0,476.383 235.195,0" /><path
             id="path24"
             style="fill:#ffffff;fill-opacity:1;fill-rule:nonzero;stroke:none"
             d="m 1166.38,24.0039 -235.189,0 0,705.5701 -194.394,0 0,199.196 623.973,0 0,-199.196 -194.39,0 0,-705.5701" /><path
             id="path26"
             style="fill:#ffffff;fill-opacity:1;fill-rule:nonzero;stroke:none"
             d="m 1810.77,695.977 c -43.21,35.996 -98.4,60 -156,60 -43.19,0 -100.79,-25.2 -100.79,-75.602 0,-52.797 63.6,-73.195 104.39,-86.395 l 60,-18 c 125.99,-37.195 223.2,-100.792 223.2,-247.191 0,-90 -21.6,-182.391 -93.6,-243.5937 C 1777.17,25.2031 1682.37,0 1591.18,0 c -114,0 -225.59,38.3984 -317.99,103.203 l 100.79,189.59 c 58.8,-51.602 128.41,-93.594 208.8,-93.594 55.19,0 113.99,27.598 113.99,91.192 0,65.996 -92.39,88.8 -142.79,103.203 -147.59,41.992 -244.79,80.39 -244.79,255.586 0,183.593 130.8,303.586 311.99,303.586 91.19,0 202.79,-28.801 283.18,-74.395 l -93.59,-182.394" /><path
             id="path28"
             style="fill:#ffffff;fill-opacity:1;fill-rule:nonzero;stroke:none"
             d="m 2315.98,649.18 -2.4,0 -97.21,-287.989 195.61,0 -96,287.989 z m -164.39,-467.989 -62.41,-157.1871 -249.59,0 347.99,904.7661 256.78,0 340.8,-904.7661 -250.8,0 -58.79,157.1871 -323.98,0" /><path
             id="path30"
             style="fill:#ffffff;fill-opacity:1;fill-rule:nonzero;stroke:none"
             d="m 2845.18,92.1172 7.34,0 c 8.57,0 15.51,2.8633 15.51,9.7968 0,6.121 -4.49,10.195 -14.28,10.195 -4.09,0 -6.93,-0.41 -8.57,-0.8 l 0,-19.1918 z m -0.41,-37.5156 -15.5,0 0,66.4924 c 6.13,1.211 14.69,2.441 25.71,2.441 12.64,0 18.35,-2.031 23.25,-5.301 3.66,-2.851 6.52,-8.156 6.52,-14.281 0,-7.7538 -5.7,-13.4647 -13.88,-15.9061 l 0,-0.8086 c 6.55,-2.043 10.22,-7.3555 12.25,-16.3281 2.04,-10.1954 3.26,-14.2696 4.9,-16.3086 l -16.74,0 c -2.03,2.4296 -3.25,8.1523 -5.29,15.8945 -1.23,7.3555 -5.31,10.6094 -13.88,10.6094 l -7.34,0 0,-26.5039 z m 10.21,88.1134 c -29.38,0 -51.41,-24.07 -51.41,-53.4377 0,-29.7929 22.03,-53.457 52.22,-53.457 29.37,-0.4101 50.99,23.6641 50.99,53.457 0,29.3677 -21.62,53.4377 -51.39,53.4377 l -0.41,0 z m 0.81,13.457 c 38.35,0 68.13,-29.774 68.13,-66.8947 0,-37.9492 -29.78,-67.3125 -68.53,-67.3125 -38.36,0 -68.96,29.3633 -68.96,67.3125 0,37.1207 30.6,66.8947 68.96,66.8947 l 0.4,0" /></g></g></g></g></svg>